<?xml version="1.0" encoding="UTF-8" standalone="no"?>
<!DOCTYPE svg PUBLIC "-//W3C//DTD SVG 1.1//EN" "http://www.w3.org/Graphics/SVG/1.1/DTD/svg11.dtd">
<svg width="100%" height="100%" viewBox="0 0 950 350" version="1.1" xmlns="http://www.w3.org/2000/svg" xmlns:xlink="http://www.w3.org/1999/xlink" xml:space="preserve" xmlns:serif="http://www.serif.com/" style="fill-rule:evenodd;clip-rule:evenodd;stroke-linejoin:round;stroke-miterlimit:1.41421;">
    <g transform="matrix(0.730298,0,0,0.716885,-54.5595,-53.694)">
        <path d="M724.324,128.577L160.621,128.577C124.388,128.577 94.972,158.543 94.972,195.453L94.972,329.206C94.972,366.116 124.388,396.083 160.621,396.083L724.324,396.083L724.324,128.577Z" style="fill:white;"/>
    </g>
    <g transform="matrix(-0.730298,0,0,0.716885,1003.77,-53.694)">
        <path d="M724.324,128.577L160.621,128.577C124.388,128.577 94.972,158.543 94.972,195.453L94.972,329.206C94.972,366.116 124.388,396.083 160.621,396.083L724.324,396.083L724.324,128.577Z" style="fill:rgb(44,66,84);"/>
    </g>
    <g transform="matrix(0.971763,0,0,-0.989563,-39.416,627.984)">
        <path d="M618.951,320.548L686.646,402.868L622.831,403.085L618.951,320.548Z" style="fill:rgb(44,66,84);"/>
    </g>
    <g transform="matrix(1,0,0,1,-29.289,-94.4781)">
        <circle cx="388.694" cy="350.159" r="20.772" style="fill:white;"/>
    </g>
    <g transform="matrix(0.664188,0,0,0.664188,133.121,62.0657)">
        <circle cx="388.694" cy="350.159" r="20.772" style="fill:white;"/>
    </g>
    <g transform="matrix(1,0,0,1,-78.9613,-43.1822)">
        <path d="M199.651,204.561C195.851,204.561 192.601,203.598 189.901,201.673C187.201,199.748 185.351,197.136 184.351,193.836C183.601,191.536 183.226,188.511 183.226,184.761C183.226,181.311 183.601,178.286 184.351,175.686C185.351,172.486 187.214,169.936 189.939,168.036C192.664,166.136 195.901,165.186 199.651,165.186C203.401,165.186 206.676,166.136 209.476,168.036C212.276,169.936 214.101,172.336 214.951,175.236C215.201,175.886 215.376,176.586 215.476,177.336L215.476,177.486C215.476,178.086 215.151,178.436 214.501,178.536L209.626,179.211L209.401,179.211C208.851,179.211 208.501,178.936 208.351,178.386L208.126,177.411C207.726,175.711 206.751,174.286 205.201,173.136C203.651,171.986 201.776,171.411 199.576,171.411C197.426,171.411 195.601,171.986 194.101,173.136C192.601,174.286 191.626,175.811 191.176,177.711C190.726,179.511 190.501,181.886 190.501,184.836C190.501,187.736 190.726,190.086 191.176,191.886C191.676,193.886 192.664,195.461 194.139,196.611C195.614,197.761 197.426,198.336 199.576,198.336C201.726,198.336 203.576,197.773 205.126,196.648C206.676,195.523 207.676,194.086 208.126,192.336L208.201,192.036L208.201,191.961C208.251,191.711 208.401,191.473 208.651,191.248C208.901,191.023 209.176,190.936 209.476,190.986L214.351,191.811C215.051,191.961 215.376,192.361 215.326,193.011C215.276,193.211 215.151,193.686 214.951,194.436C214.101,197.486 212.276,199.936 209.476,201.786C206.676,203.636 203.401,204.561 199.651,204.561Z" style="fill:rgb(34,34,34);fill-rule:nonzero;"/>
        <path d="M239.176,204.561C235.426,204.561 232.189,203.623 229.464,201.748C226.739,199.873 224.826,197.261 223.726,193.911C222.826,191.211 222.376,188.161 222.376,184.761C222.376,181.211 222.801,178.211 223.651,175.761C224.751,172.461 226.676,169.873 229.426,167.998C232.176,166.123 235.451,165.186 239.251,165.186C242.851,165.186 245.989,166.123 248.664,167.998C251.339,169.873 253.251,172.436 254.401,175.686C255.301,178.236 255.751,181.236 255.751,184.686C255.751,188.186 255.301,191.261 254.401,193.911C253.301,197.261 251.401,199.873 248.701,201.748C246.001,203.623 242.826,204.561 239.176,204.561ZM239.176,198.336C241.176,198.336 242.926,197.773 244.426,196.648C245.926,195.523 247.001,193.936 247.651,191.886C248.201,189.986 248.476,187.636 248.476,184.836C248.476,182.036 248.226,179.711 247.726,177.861C247.076,175.811 246.001,174.223 244.501,173.098C243.001,171.973 241.176,171.411 239.026,171.411C236.976,171.411 235.201,171.973 233.701,173.098C232.201,174.223 231.126,175.811 230.476,177.861C229.926,179.611 229.651,181.936 229.651,184.836C229.651,187.736 229.926,190.086 230.476,191.886C231.076,193.936 232.139,195.523 233.664,196.648C235.189,197.773 237.026,198.336 239.176,198.336Z" style="fill:rgb(34,34,34);fill-rule:nonzero;"/>
        <path d="M282.151,165.261C286.251,165.261 289.501,166.448 291.901,168.823C294.301,171.198 295.501,174.411 295.501,178.461L295.501,202.836C295.501,203.186 295.401,203.461 295.201,203.661C295.001,203.861 294.726,203.961 294.376,203.961L289.426,203.961C289.076,203.961 288.801,203.861 288.601,203.661C288.401,203.461 288.301,203.186 288.301,202.836L288.301,179.886C288.301,177.386 287.576,175.361 286.126,173.811C284.676,172.261 282.751,171.486 280.351,171.486C278.201,171.486 276.389,172.123 274.914,173.398C273.439,174.673 272.576,176.386 272.326,178.536L272.326,202.836C272.326,203.186 272.226,203.461 272.026,203.661C271.826,203.861 271.551,203.961 271.201,203.961L266.251,203.961C265.901,203.961 265.626,203.861 265.426,203.661C265.226,203.461 265.126,203.186 265.126,202.836L265.126,166.911C265.126,166.561 265.226,166.286 265.426,166.086C265.626,165.886 265.901,165.786 266.251,165.786L271.201,165.786C271.551,165.786 271.826,165.886 272.026,166.086C272.226,166.286 272.326,166.561 272.326,166.911L272.326,169.011C272.326,169.161 272.376,169.261 272.476,169.311C272.576,169.361 272.651,169.336 272.701,169.236C274.801,166.586 277.951,165.261 282.151,165.261Z" style="fill:rgb(34,34,34);fill-rule:nonzero;"/>
        <path d="M319.201,204.411C316.251,204.411 313.639,203.961 311.364,203.061C309.089,202.161 307.326,200.923 306.076,199.348C304.826,197.773 304.201,196.036 304.201,194.136L304.201,193.686C304.201,193.336 304.301,193.061 304.501,192.861C304.701,192.661 304.976,192.561 305.326,192.561L309.976,192.561C310.326,192.561 310.601,192.611 310.801,192.711C311.001,192.811 311.101,192.936 311.101,193.086L311.101,193.686C311.101,195.086 311.864,196.311 313.389,197.361C314.914,198.411 316.826,198.936 319.126,198.936C321.426,198.936 323.276,198.448 324.676,197.473C326.076,196.498 326.776,195.261 326.776,193.761C326.776,192.311 326.126,191.223 324.826,190.498C323.526,189.773 321.426,189.011 318.526,188.211C315.676,187.411 313.289,186.598 311.364,185.773C309.439,184.948 307.814,183.773 306.489,182.248C305.164,180.723 304.501,178.761 304.501,176.361C304.501,173.011 305.814,170.348 308.439,168.373C311.064,166.398 314.551,165.411 318.901,165.411C321.801,165.411 324.364,165.873 326.589,166.798C328.814,167.723 330.526,169.011 331.726,170.661C332.926,172.311 333.526,174.161 333.526,176.211C333.526,176.511 333.426,176.748 333.226,176.923C333.026,177.098 332.751,177.186 332.401,177.186L327.901,177.186C327.551,177.186 327.276,177.136 327.076,177.036C326.876,176.936 326.776,176.811 326.776,176.661L326.776,176.211C326.776,174.761 326.064,173.548 324.639,172.573C323.214,171.598 321.276,171.111 318.826,171.111C316.626,171.111 314.839,171.536 313.464,172.386C312.089,173.236 311.401,174.386 311.401,175.836C311.401,177.286 312.064,178.386 313.389,179.136C314.714,179.886 316.851,180.686 319.801,181.536C322.701,182.336 325.114,183.123 327.039,183.898C328.964,184.673 330.601,185.823 331.951,187.348C333.301,188.873 333.976,190.861 333.976,193.311C333.976,196.711 332.639,199.411 329.964,201.411C327.289,203.411 323.701,204.411 319.201,204.411Z" style="fill:rgb(34,34,34);fill-rule:nonzero;"/>
        <path d="M346.576,160.086C345.126,160.086 343.939,159.648 343.014,158.773C342.089,157.898 341.626,156.761 341.626,155.361C341.626,153.961 342.089,152.823 343.014,151.948C343.939,151.073 345.126,150.636 346.576,150.636C348.026,150.636 349.201,151.073 350.101,151.948C351.001,152.823 351.451,153.961 351.451,155.361C351.451,156.761 351.001,157.898 350.101,158.773C349.201,159.648 348.026,160.086 346.576,160.086ZM344.101,203.961C343.751,203.961 343.476,203.861 343.276,203.661C343.076,203.461 342.976,203.186 342.976,202.836L342.976,166.911C342.976,166.561 343.076,166.286 343.276,166.086C343.476,165.886 343.751,165.786 344.101,165.786L349.051,165.786C349.401,165.786 349.676,165.886 349.876,166.086C350.076,166.286 350.176,166.561 350.176,166.911L350.176,202.836C350.176,203.186 350.076,203.461 349.876,203.661C349.676,203.861 349.401,203.961 349.051,203.961L344.101,203.961Z" style="fill:rgb(34,34,34);fill-rule:nonzero;"/>
        <path d="M384.451,152.586C384.451,152.236 384.551,151.961 384.751,151.761C384.951,151.561 385.226,151.461 385.576,151.461L390.526,151.461C390.876,151.461 391.151,151.561 391.351,151.761C391.551,151.961 391.651,152.236 391.651,152.586L391.651,202.836C391.651,203.186 391.551,203.461 391.351,203.661C391.151,203.861 390.876,203.961 390.526,203.961L385.576,203.961C385.226,203.961 384.951,203.861 384.751,203.661C384.551,203.461 384.451,203.186 384.451,202.836L384.451,200.886C384.451,200.736 384.401,200.636 384.301,200.586C384.201,200.536 384.101,200.561 384.001,200.661C382.901,201.911 381.614,202.873 380.139,203.548C378.664,204.223 377.051,204.561 375.301,204.561C371.701,204.561 368.714,203.673 366.339,201.898C363.964,200.123 362.226,197.611 361.126,194.361C360.226,191.861 359.776,188.661 359.776,184.761C359.776,181.111 360.151,178.086 360.901,175.686C361.951,172.386 363.689,169.811 366.114,167.961C368.539,166.111 371.601,165.186 375.301,165.186C377.051,165.186 378.664,165.511 380.139,166.161C381.614,166.811 382.901,167.761 384.001,169.011C384.101,169.111 384.201,169.148 384.301,169.123C384.401,169.098 384.451,169.011 384.451,168.861L384.451,152.586ZM382.576,194.286C383.776,192.086 384.376,188.936 384.376,184.836C384.376,180.736 383.726,177.536 382.426,175.236C380.976,172.686 378.851,171.411 376.051,171.411C373.151,171.411 370.926,172.611 369.376,175.011C367.776,177.511 366.976,180.811 366.976,184.911C366.976,188.761 367.601,191.861 368.851,194.211C370.301,196.961 372.701,198.336 376.051,198.336C378.901,198.336 381.076,196.986 382.576,194.286Z" style="fill:rgb(34,34,34);fill-rule:nonzero;"/>
        <path d="M418.276,198.411C422.326,198.361 425.226,196.786 426.976,193.686C427.226,193.236 427.501,193.011 427.801,193.011C428.051,193.011 428.276,193.086 428.476,193.236L431.551,195.111C431.951,195.361 432.151,195.686 432.151,196.086L432.001,196.686C430.651,199.136 428.739,201.061 426.264,202.461C423.789,203.861 420.901,204.561 417.601,204.561C414.051,204.561 411.051,203.773 408.601,202.198C406.151,200.623 404.301,198.361 403.051,195.411C401.801,192.361 401.176,188.786 401.176,184.686C401.176,181.036 401.451,178.261 402.001,176.361C402.901,172.911 404.701,170.186 407.401,168.186C410.101,166.186 413.376,165.186 417.226,165.186C421.976,165.186 425.601,166.423 428.101,168.898C430.601,171.373 432.226,174.961 432.976,179.661C433.226,181.511 433.401,183.761 433.501,186.411C433.501,187.161 433.126,187.536 432.376,187.536L408.676,187.536C408.426,187.536 408.301,187.661 408.301,187.911C408.401,189.811 408.576,191.161 408.826,191.961C409.376,193.961 410.476,195.536 412.126,196.686C413.776,197.836 415.826,198.411 418.276,198.411ZM417.226,171.411C415.026,171.411 413.239,171.936 411.864,172.986C410.489,174.036 409.551,175.486 409.051,177.336C408.701,178.436 408.476,179.836 408.376,181.536C408.376,181.786 408.501,181.911 408.751,181.911L425.776,181.911C426.026,181.911 426.151,181.786 426.151,181.536C426.051,179.886 425.901,178.661 425.701,177.861C425.201,175.911 424.214,174.348 422.739,173.173C421.264,171.998 419.426,171.411 417.226,171.411Z" style="fill:rgb(34,34,34);fill-rule:nonzero;"/>
        <path d="M459.301,165.411C460.801,165.411 462.151,165.686 463.351,166.236C463.901,166.536 464.101,167.011 463.951,167.661L462.901,172.536C462.851,173.036 462.601,173.286 462.151,173.286C461.901,173.286 461.701,173.261 461.551,173.211C460.801,172.961 459.951,172.836 459.001,172.836C458.501,172.836 458.126,172.861 457.876,172.911C455.526,173.011 453.589,173.823 452.064,175.348C450.539,176.873 449.776,178.861 449.776,181.311L449.776,202.836C449.776,203.186 449.676,203.461 449.476,203.661C449.276,203.861 449.001,203.961 448.651,203.961L443.701,203.961C443.351,203.961 443.076,203.861 442.876,203.661C442.676,203.461 442.576,203.186 442.576,202.836L442.576,166.911C442.576,166.561 442.676,166.286 442.876,166.086C443.076,165.886 443.351,165.786 443.701,165.786L448.651,165.786C449.001,165.786 449.276,165.886 449.476,166.086C449.676,166.286 449.776,166.561 449.776,166.911L449.776,170.361C449.776,170.561 449.814,170.673 449.889,170.698C449.964,170.723 450.051,170.661 450.151,170.511C452.401,167.111 455.451,165.411 459.301,165.411Z" style="fill:rgb(34,34,34);fill-rule:nonzero;"/>
    </g>
    <g transform="matrix(1,0,0,1,391.039,-43.1822)">
        <path d="M201.076,165.411C202.576,165.411 203.926,165.686 205.126,166.236C205.676,166.536 205.876,167.011 205.726,167.661L204.676,172.536C204.626,173.036 204.376,173.286 203.926,173.286C203.676,173.286 203.476,173.261 203.326,173.211C202.576,172.961 201.726,172.836 200.776,172.836C200.276,172.836 199.901,172.861 199.651,172.911C197.301,173.011 195.364,173.823 193.839,175.348C192.314,176.873 191.551,178.861 191.551,181.311L191.551,202.836C191.551,203.186 191.451,203.461 191.251,203.661C191.051,203.861 190.776,203.961 190.426,203.961L185.476,203.961C185.126,203.961 184.851,203.861 184.651,203.661C184.451,203.461 184.351,203.186 184.351,202.836L184.351,166.911C184.351,166.561 184.451,166.286 184.651,166.086C184.851,165.886 185.126,165.786 185.476,165.786L190.426,165.786C190.776,165.786 191.051,165.886 191.251,166.086C191.451,166.286 191.551,166.561 191.551,166.911L191.551,170.361C191.551,170.561 191.589,170.673 191.664,170.698C191.739,170.723 191.826,170.661 191.926,170.511C194.176,167.111 197.226,165.411 201.076,165.411Z" style="fill:white;fill-rule:nonzero;"/>
        <path d="M227.626,198.411C231.676,198.361 234.576,196.786 236.326,193.686C236.576,193.236 236.851,193.011 237.151,193.011C237.401,193.011 237.626,193.086 237.826,193.236L240.901,195.111C241.301,195.361 241.501,195.686 241.501,196.086L241.351,196.686C240.001,199.136 238.089,201.061 235.614,202.461C233.139,203.861 230.251,204.561 226.951,204.561C223.401,204.561 220.401,203.773 217.951,202.198C215.501,200.623 213.651,198.361 212.401,195.411C211.151,192.361 210.526,188.786 210.526,184.686C210.526,181.036 210.801,178.261 211.351,176.361C212.251,172.911 214.051,170.186 216.751,168.186C219.451,166.186 222.726,165.186 226.576,165.186C231.326,165.186 234.951,166.423 237.451,168.898C239.951,171.373 241.576,174.961 242.326,179.661C242.576,181.511 242.751,183.761 242.851,186.411C242.851,187.161 242.476,187.536 241.726,187.536L218.026,187.536C217.776,187.536 217.651,187.661 217.651,187.911C217.751,189.811 217.926,191.161 218.176,191.961C218.726,193.961 219.826,195.536 221.476,196.686C223.126,197.836 225.176,198.411 227.626,198.411ZM226.576,171.411C224.376,171.411 222.589,171.936 221.214,172.986C219.839,174.036 218.901,175.486 218.401,177.336C218.051,178.436 217.826,179.836 217.726,181.536C217.726,181.786 217.851,181.911 218.101,181.911L235.126,181.911C235.376,181.911 235.501,181.786 235.501,181.536C235.401,179.886 235.251,178.661 235.051,177.861C234.551,175.911 233.564,174.348 232.089,173.173C230.614,171.998 228.776,171.411 226.576,171.411Z" style="fill:white;fill-rule:nonzero;"/>
        <path d="M265.351,204.411C262.401,204.411 259.789,203.961 257.514,203.061C255.239,202.161 253.476,200.923 252.226,199.348C250.976,197.773 250.351,196.036 250.351,194.136L250.351,193.686C250.351,193.336 250.451,193.061 250.651,192.861C250.851,192.661 251.126,192.561 251.476,192.561L256.126,192.561C256.476,192.561 256.751,192.611 256.951,192.711C257.151,192.811 257.251,192.936 257.251,193.086L257.251,193.686C257.251,195.086 258.014,196.311 259.539,197.361C261.064,198.411 262.976,198.936 265.276,198.936C267.576,198.936 269.426,198.448 270.826,197.473C272.226,196.498 272.926,195.261 272.926,193.761C272.926,192.311 272.276,191.223 270.976,190.498C269.676,189.773 267.576,189.011 264.676,188.211C261.826,187.411 259.439,186.598 257.514,185.773C255.589,184.948 253.964,183.773 252.639,182.248C251.314,180.723 250.651,178.761 250.651,176.361C250.651,173.011 251.964,170.348 254.589,168.373C257.214,166.398 260.701,165.411 265.051,165.411C267.951,165.411 270.514,165.873 272.739,166.798C274.964,167.723 276.676,169.011 277.876,170.661C279.076,172.311 279.676,174.161 279.676,176.211C279.676,176.511 279.576,176.748 279.376,176.923C279.176,177.098 278.901,177.186 278.551,177.186L274.051,177.186C273.701,177.186 273.426,177.136 273.226,177.036C273.026,176.936 272.926,176.811 272.926,176.661L272.926,176.211C272.926,174.761 272.214,173.548 270.789,172.573C269.364,171.598 267.426,171.111 264.976,171.111C262.776,171.111 260.989,171.536 259.614,172.386C258.239,173.236 257.551,174.386 257.551,175.836C257.551,177.286 258.214,178.386 259.539,179.136C260.864,179.886 263.001,180.686 265.951,181.536C268.851,182.336 271.264,183.123 273.189,183.898C275.114,184.673 276.751,185.823 278.101,187.348C279.451,188.873 280.126,190.861 280.126,193.311C280.126,196.711 278.789,199.411 276.114,201.411C273.439,203.411 269.851,204.411 265.351,204.411Z" style="fill:white;fill-rule:nonzero;"/>
        <path d="M319.501,175.386C320.401,177.886 320.851,181.086 320.851,184.986C320.851,188.636 320.476,191.661 319.726,194.061C318.676,197.361 316.939,199.936 314.514,201.786C312.089,203.636 309.026,204.561 305.326,204.561C303.576,204.561 301.964,204.236 300.489,203.586C299.014,202.936 297.726,201.986 296.626,200.736C296.526,200.636 296.426,200.598 296.326,200.623C296.226,200.648 296.176,200.736 296.176,200.886L296.176,217.161C296.176,217.511 296.076,217.786 295.876,217.986C295.676,218.186 295.401,218.286 295.051,218.286L290.101,218.286C289.751,218.286 289.476,218.186 289.276,217.986C289.076,217.786 288.976,217.511 288.976,217.161L288.976,166.911C288.976,166.561 289.076,166.286 289.276,166.086C289.476,165.886 289.751,165.786 290.101,165.786L295.051,165.786C295.401,165.786 295.676,165.886 295.876,166.086C296.076,166.286 296.176,166.561 296.176,166.911L296.176,168.861C296.176,169.011 296.226,169.111 296.326,169.161C296.426,169.211 296.526,169.186 296.626,169.086C297.726,167.836 299.014,166.873 300.489,166.198C301.964,165.523 303.576,165.186 305.326,165.186C308.926,165.186 311.914,166.073 314.289,167.848C316.664,169.623 318.401,172.136 319.501,175.386ZM311.251,194.736C312.851,192.236 313.651,188.936 313.651,184.836C313.651,180.986 313.026,177.886 311.776,175.536C310.326,172.786 307.926,171.411 304.576,171.411C301.726,171.411 299.551,172.761 298.051,175.461C296.851,177.611 296.251,180.761 296.251,184.911C296.251,189.011 296.901,192.211 298.201,194.511C299.651,197.061 301.776,198.336 304.576,198.336C307.476,198.336 309.701,197.136 311.251,194.736Z" style="fill:white;fill-rule:nonzero;"/>
        <path d="M345.601,204.561C341.851,204.561 338.614,203.623 335.889,201.748C333.164,199.873 331.251,197.261 330.151,193.911C329.251,191.211 328.801,188.161 328.801,184.761C328.801,181.211 329.226,178.211 330.076,175.761C331.176,172.461 333.101,169.873 335.851,167.998C338.601,166.123 341.876,165.186 345.676,165.186C349.276,165.186 352.414,166.123 355.089,167.998C357.764,169.873 359.676,172.436 360.826,175.686C361.726,178.236 362.176,181.236 362.176,184.686C362.176,188.186 361.726,191.261 360.826,193.911C359.726,197.261 357.826,199.873 355.126,201.748C352.426,203.623 349.251,204.561 345.601,204.561ZM345.601,198.336C347.601,198.336 349.351,197.773 350.851,196.648C352.351,195.523 353.426,193.936 354.076,191.886C354.626,189.986 354.901,187.636 354.901,184.836C354.901,182.036 354.651,179.711 354.151,177.861C353.501,175.811 352.426,174.223 350.926,173.098C349.426,171.973 347.601,171.411 345.451,171.411C343.401,171.411 341.626,171.973 340.126,173.098C338.626,174.223 337.551,175.811 336.901,177.861C336.351,179.611 336.076,181.936 336.076,184.836C336.076,187.736 336.351,190.086 336.901,191.886C337.501,193.936 338.564,195.523 340.089,196.648C341.614,197.773 343.451,198.336 345.601,198.336Z" style="fill:white;fill-rule:nonzero;"/>
        <path d="M388.576,165.261C392.676,165.261 395.926,166.448 398.326,168.823C400.726,171.198 401.926,174.411 401.926,178.461L401.926,202.836C401.926,203.186 401.826,203.461 401.626,203.661C401.426,203.861 401.151,203.961 400.801,203.961L395.851,203.961C395.501,203.961 395.226,203.861 395.026,203.661C394.826,203.461 394.726,203.186 394.726,202.836L394.726,179.886C394.726,177.386 394.001,175.361 392.551,173.811C391.101,172.261 389.176,171.486 386.776,171.486C384.626,171.486 382.814,172.123 381.339,173.398C379.864,174.673 379.001,176.386 378.751,178.536L378.751,202.836C378.751,203.186 378.651,203.461 378.451,203.661C378.251,203.861 377.976,203.961 377.626,203.961L372.676,203.961C372.326,203.961 372.051,203.861 371.851,203.661C371.651,203.461 371.551,203.186 371.551,202.836L371.551,166.911C371.551,166.561 371.651,166.286 371.851,166.086C372.051,165.886 372.326,165.786 372.676,165.786L377.626,165.786C377.976,165.786 378.251,165.886 378.451,166.086C378.651,166.286 378.751,166.561 378.751,166.911L378.751,169.011C378.751,169.161 378.801,169.261 378.901,169.311C379.001,169.361 379.076,169.336 379.126,169.236C381.226,166.586 384.376,165.261 388.576,165.261Z" style="fill:white;fill-rule:nonzero;"/>
        <path d="M435.451,152.586C435.451,152.236 435.551,151.961 435.751,151.761C435.951,151.561 436.226,151.461 436.576,151.461L441.526,151.461C441.876,151.461 442.151,151.561 442.351,151.761C442.551,151.961 442.651,152.236 442.651,152.586L442.651,202.836C442.651,203.186 442.551,203.461 442.351,203.661C442.151,203.861 441.876,203.961 441.526,203.961L436.576,203.961C436.226,203.961 435.951,203.861 435.751,203.661C435.551,203.461 435.451,203.186 435.451,202.836L435.451,200.886C435.451,200.736 435.401,200.636 435.301,200.586C435.201,200.536 435.101,200.561 435.001,200.661C433.901,201.911 432.614,202.873 431.139,203.548C429.664,204.223 428.051,204.561 426.301,204.561C422.701,204.561 419.714,203.673 417.339,201.898C414.964,200.123 413.226,197.611 412.126,194.361C411.226,191.861 410.776,188.661 410.776,184.761C410.776,181.111 411.151,178.086 411.901,175.686C412.951,172.386 414.689,169.811 417.114,167.961C419.539,166.111 422.601,165.186 426.301,165.186C428.051,165.186 429.664,165.511 431.139,166.161C432.614,166.811 433.901,167.761 435.001,169.011C435.101,169.111 435.201,169.148 435.301,169.123C435.401,169.098 435.451,169.011 435.451,168.861L435.451,152.586ZM433.576,194.286C434.776,192.086 435.376,188.936 435.376,184.836C435.376,180.736 434.726,177.536 433.426,175.236C431.976,172.686 429.851,171.411 427.051,171.411C424.151,171.411 421.926,172.611 420.376,175.011C418.776,177.511 417.976,180.811 417.976,184.911C417.976,188.761 418.601,191.861 419.851,194.211C421.301,196.961 423.701,198.336 427.051,198.336C429.901,198.336 432.076,196.986 433.576,194.286Z" style="fill:white;fill-rule:nonzero;"/>
    </g>
</svg>
