<?xml version="1.0" encoding="utf-8"?>
<!-- Generator: Adobe Illustrator 19.2.1, SVG Export Plug-In . SVG Version: 6.00 Build 0)  -->
<svg version="1.1" xmlns="http://www.w3.org/2000/svg" xmlns:xlink="http://www.w3.org/1999/xlink" x="0px" y="0px" width="24px"
	 height="24px" viewBox="0 0 24 24" enable-background="new 0 0 24 24" xml:space="preserve">
<g id="Filled_Icons_1_">
	<g id="Filled_Icons">
		<path fill="#EB524A" d="M23.5,8H16V0.5C16,0.224,15.776,0,15.5,0h-7C8.224,0,8,0.224,8,0.5V8H0.5C0.224,8,0,8.224,0,8.5v7
			C0,15.776,0.224,16,0.5,16H8v7.5C8,23.776,8.224,24,8.5,24h7c0.276,0,0.5-0.224,0.5-0.5V16h7.5c0.276,0,0.5-0.224,0.5-0.5v-7
			C24,8.224,23.776,8,23.5,8z"/>
	</g>
	<g id="New_icons">
	</g>
</g>
<g id="Invisible_Shape">
	<rect fill="none" width="24" height="24"/>
</g>
</svg>
