<?xml version="1.0" encoding="utf-8"?>
<!-- Generator: Adobe Illustrator 19.2.1, SVG Export Plug-In . SVG Version: 6.00 Build 0)  -->
<svg version="1.1" xmlns="http://www.w3.org/2000/svg" xmlns:xlink="http://www.w3.org/1999/xlink" x="0px" y="0px" width="24px"
	 height="24px" viewBox="0 0 24 24" enable-background="new 0 0 24 24" xml:space="preserve">
<g id="Filled_Icons">
	<path fill="#432E41" d="M12,0.004c-6.617,0-12,5.383-12,12s5.383,12,12,12s12-5.383,12-12S18.616,0.004,12,0.004z M15,8.504
		c0,0.154-0.071,0.3-0.193,0.395l-3.993,3.105l3.993,3.106C14.929,15.204,15,15.35,15,15.504v4c0,0.194-0.112,0.37-0.288,0.453
		c-0.067,0.031-0.14,0.047-0.212,0.047c-0.115,0-0.229-0.039-0.32-0.116l-9-7.5c-0.114-0.095-0.18-0.235-0.18-0.384
		c0-0.148,0.066-0.289,0.18-0.384l9-7.5c0.15-0.125,0.359-0.149,0.532-0.069C14.888,4.134,15,4.31,15,4.504V8.504z"/>
</g>
<g id="Frames-24px">
	<rect fill="none" width="24" height="24"/>
</g>
</svg>
