<?xml version="1.0" encoding="utf-8"?>
<!-- Generator: Adobe Illustrator 19.2.1, SVG Export Plug-In . SVG Version: 6.00 Build 0)  -->
<svg version="1.1" xmlns="http://www.w3.org/2000/svg" xmlns:xlink="http://www.w3.org/1999/xlink" x="0px" y="0px" width="24px"
	 height="24px" viewBox="0 0 24 24" enable-background="new 0 0 24 24" xml:space="preserve">
<g id="Filled_Icons">
	<g>
		<path fill="#432E41" d="M20.647,10.341c-0.231,0-0.459,0.023-0.682,0.07c-0.507-2.547-2.724-4.4-5.383-4.4c-0.673,0-1.361,0.129-1.987,0.372
			C12.45,6.438,12.007,6.607,12,7.183v8.984c0.005,0.447,0.362,0.819,0.795,0.829C12.989,17,19.864,17,20.647,17
			c1.835,0,3.329-1.494,3.329-3.329C23.977,11.835,22.483,10.341,20.647,10.341z"/>
		<path fill="#432E41" d="M10.5,6.989c-0.276,0-0.5,0.224-0.5,0.5v9.006c0,0.276,0.224,0.5,0.5,0.5s0.5-0.224,0.5-0.5V7.489
			C11,7.213,10.776,6.989,10.5,6.989z"/>
		<path fill="#432E41" d="M8.5,7.989c-0.276,0-0.5,0.224-0.5,0.5v8.006c0,0.276,0.224,0.5,0.5,0.5s0.5-0.224,0.5-0.5V8.489
			C9,8.213,8.776,7.989,8.5,7.989z"/>
		<path fill="#432E41" d="M6.5,8.489c-0.276,0-0.5,0.224-0.5,0.5v7.506c0,0.276,0.224,0.5,0.5,0.5s0.5-0.224,0.5-0.5V8.989
			C7,8.713,6.776,8.489,6.5,8.489z"/>
		<path fill="#432E41" d="M4.5,10.489c-0.276,0-0.5,0.224-0.5,0.5v5.506c0,0.276,0.224,0.5,0.5,0.5s0.5-0.224,0.5-0.5v-5.506
			C5,10.713,4.776,10.489,4.5,10.489z"/>
		<path fill="#432E41" d="M2.5,10.489c-0.276,0-0.5,0.224-0.5,0.5v5.506c0,0.276,0.224,0.5,0.5,0.5s0.5-0.224,0.5-0.5v-5.506
			C3,10.713,2.776,10.489,2.5,10.489z"/>
		<path fill="#432E41" d="M0.5,11.492c-0.276,0-0.5,0.224-0.5,0.5v3.991c0,0.277,0.224,0.5,0.5,0.5s0.5-0.223,0.5-0.5v-3.991
			C1,11.716,0.776,11.492,0.5,11.492z"/>
	</g>
</g>
<g id="Frames-24px">
	<rect fill="none" width="24" height="24"/>
</g>
</svg>
