<?xml version="1.0" encoding="utf-8"?>
<!-- Generator: Adobe Illustrator 19.2.1, SVG Export Plug-In . SVG Version: 6.00 Build 0)  -->
<svg version="1.1" xmlns="http://www.w3.org/2000/svg" xmlns:xlink="http://www.w3.org/1999/xlink" x="0px" y="0px" width="24px"
	 height="24px" viewBox="0 0 24 24" enable-background="new 0 0 24 24" xml:space="preserve">
<g id="Filled_Icons_1_">
	<g id="Filled_Icons">
		<g>
			<path fill="#43AFFA" d="M20.397,4.756c0.444,0.409,0.8,1.096,0.931,1.793c0.124,0.665,0.031,1.228-0.264,1.547l-3.81,4.114
				c-0.374,0.407-1.024,0.464-1.501-0.027c-0.406-0.376-1.037-0.353-1.412,0.055c-0.378,0.405-0.352,1.036,0.053,1.413
				c1.142,1.131,3.093,1.229,4.329-0.082l3.807-4.117c0.741-0.797,1.012-1.96,0.764-3.273c-0.211-1.114-0.784-2.195-1.538-2.89
				l-1.821-1.687c-0.753-0.698-1.874-1.187-3.001-1.312c-1.328-0.146-2.468,0.213-3.205,1.015L9.916,5.418
				c-1.213,1.334-0.963,3.27,0.253,4.322c0.408,0.375,1.037,0.351,1.413-0.057c0.376-0.404,0.352-1.035-0.055-1.411
				C11,7.835,11.01,7.181,11.386,6.778l3.809-4.115c0.293-0.319,0.85-0.456,1.521-0.382c0.704,0.076,1.417,0.378,1.86,0.788
				L20.397,4.756z"/>
			<path fill="#43AFFA" d="M3.601,19.245c-0.444-0.41-0.8-1.097-0.931-1.794c-0.124-0.664-0.031-1.228,0.264-1.547l3.81-4.114
				c0.374-0.407,1.024-0.464,1.501,0.027c0.406,0.376,1.037,0.352,1.412-0.055c0.378-0.405,0.353-1.036-0.053-1.413
				c-1.142-1.131-3.093-1.23-4.329,0.082l-3.807,4.117c-0.741,0.796-1.012,1.96-0.764,3.273c0.211,1.114,0.784,2.195,1.538,2.891
				l1.821,1.686c0.753,0.699,1.874,1.188,3.001,1.312c1.328,0.146,2.468-0.212,3.205-1.014l3.812-4.114
				c1.213-1.334,0.963-3.27-0.253-4.322c-0.408-0.375-1.037-0.351-1.413,0.058c-0.376,0.405-0.352,1.035,0.055,1.411
				c0.527,0.436,0.518,1.091,0.142,1.494l-3.809,4.115c-0.293,0.319-0.85,0.455-1.522,0.382c-0.704-0.077-1.417-0.377-1.86-0.789
				L3.601,19.245z"/>
			<path fill="#43AFFA" d="M16.416,7.228c-0.404-0.375-1.037-0.35-1.413,0.055l-7.475,8.07c-0.375,0.406-0.351,1.038,0.055,1.414
				c0.404,0.375,1.037,0.352,1.413-0.054l7.475-8.07C16.846,8.237,16.821,7.603,16.416,7.228z"/>
		</g>
	</g>
	<g id="New_icons">
	</g>
</g>
<g id="Frames-24px">
	<rect fill="none" width="24" height="24"/>
</g>
</svg>
