<?xml version="1.0" encoding="utf-8"?>
<!-- Generator: Adobe Illustrator 16.0.3, SVG Export Plug-In . SVG Version: 6.00 Build 0)  -->
<!DOCTYPE svg PUBLIC "-//W3C//DTD SVG 1.1//EN" "http://www.w3.org/Graphics/SVG/1.1/DTD/svg11.dtd">
<svg version="1.1" xmlns="http://www.w3.org/2000/svg" xmlns:xlink="http://www.w3.org/1999/xlink" x="0px" y="0px" width="24px"
	 height="24px" viewBox="0 0 24 24" enable-background="new 0 0 24 24" xml:space="preserve">
<g id="Outline_Icons">
	<g>
		<path d="M13.709,1H7.608C6.887,1,6.156,1.126,5.435,1.375C3.012,2.208,1.319,4.296,1.319,6.452c0,2.828,2.074,5.05,4.909,5.371
			c-0.004,0.062-0.006,0.123-0.006,0.184c0,0.252,0.032,0.5,0.097,0.741c-2.645,0.199-4.969,1.588-5.906,3.583
			C0.139,16.914,0,17.509,0,18.098c0,0.586,0.15,1.151,0.445,1.682c0.654,1.169,2.024,2.068,3.857,2.53
			c0.917,0.232,1.9,0.35,2.923,0.35c0.926,0,1.812-0.12,2.633-0.358c2.638-0.765,4.342-2.735,4.342-5.018
			c0-2.131-0.714-3.467-2.546-4.764c-0.622-0.44-1.086-0.983-1.192-1.17c0.007-0.208,0.08-0.343,0.795-0.9
			c1.353-1.059,2.098-2.464,2.098-3.958c0-0.966-0.217-1.871-0.621-2.626c0.064-0.027,0.125-0.062,0.184-0.104l1.362-0.987
			c0.348-0.249,0.492-0.69,0.359-1.098C14.509,1.272,14.134,1,13.709,1z M12.344,2.947h-0.488c-0.194,0-0.371,0.112-0.453,0.288
			c-0.082,0.176-0.055,0.384,0.069,0.532c0.57,0.684,0.885,1.65,0.885,2.724c0,1.179-0.609,2.305-1.713,3.17
			c-0.96,0.748-1.181,1.078-1.181,1.787c0.03,0.584,1.101,1.524,1.615,1.888c1.568,1.109,2.124,2.143,2.124,3.947
			c0,1.827-1.421,3.42-3.621,4.058c-1.555,0.45-3.454,0.398-5.033-0.001c-1.564-0.394-2.711-1.121-3.229-2.048
			C1.107,18.913,1,18.511,1,18.098c0-0.441,0.107-0.892,0.319-1.342c0.852-1.813,3.124-3.032,5.734-3.032
			c0.178,0,0.343-0.095,0.432-0.249c0.09-0.154,0.09-0.344,0.002-0.499c-0.178-0.312-0.265-0.63-0.265-0.969
			c0-0.169,0.022-0.34,0.069-0.522c0.037-0.147,0.005-0.303-0.087-0.425c-0.092-0.122-0.234-0.194-0.387-0.198
			c-2.606-0.059-4.499-1.914-4.499-4.41c0-1.736,1.415-3.435,3.441-4.132C6.376,2.107,6.998,2,7.608,2l6.088-0.037L12.344,2.947z"/>
		<path d="M9.071,14.471c-0.461-0.141-0.949-0.216-1.455-0.222H7.56c-2.385,0-4.399,1.462-4.399,3.193
			c0,1.84,1.78,3.282,4.053,3.282c3.687,0,4.461-1.736,4.461-3.193c0-0.205-0.025-0.418-0.078-0.643
			c-0.224-0.877-0.958-1.377-1.978-2.073l-0.408-0.279C9.167,14.509,9.121,14.486,9.071,14.471z M10.625,17.128
			c0.033,0.139,0.049,0.275,0.049,0.404c0,0.542,0,2.193-3.461,2.193c-1.712,0-3.053-1.002-3.053-2.282
			c0-1.148,1.62-2.193,3.399-2.193v-0.5l0.051,0.5c0.379,0.004,0.748,0.057,1.097,0.157l0.351,0.239
			C9.955,16.257,10.496,16.626,10.625,17.128z"/>
		<path d="M6.782,2.823c-0.001,0-0.003,0-0.004,0c-0.618,0-1.188,0.262-1.603,0.737C4.577,4.242,4.321,5.293,4.473,6.443
			c0.271,2.07,1.776,3.793,3.393,3.84c0.636,0,1.196-0.255,1.617-0.736c0.603-0.687,0.872-1.786,0.72-2.939
			C9.932,4.535,8.457,2.873,6.836,2.824L6.782,2.823z M9.212,6.738c0.113,0.859-0.072,1.683-0.481,2.15
			C8.499,9.154,8.215,9.283,7.859,9.283c-1.073-0.031-2.191-1.42-2.395-2.97C5.351,5.448,5.519,4.685,5.927,4.219
			c0.229-0.263,0.515-0.396,0.85-0.396v-0.5l0.04,0.5C7.912,3.857,9.009,5.191,9.212,6.738z"/>
		<path d="M23.5,9H21V6.5C21,6.224,20.776,6,20.5,6h-2C18.224,6,18,6.224,18,6.5V9h-2.5C15.224,9,15,9.224,15,9.5v2
			c0,0.276,0.224,0.5,0.5,0.5H18v2.5c0,0.276,0.224,0.5,0.5,0.5h2c0.276,0,0.5-0.224,0.5-0.5V12h2.5c0.276,0,0.5-0.224,0.5-0.5v-2
			C24,9.224,23.776,9,23.5,9z M23,11h-2.5c-0.276,0-0.5,0.224-0.5,0.5V14h-1v-2.5c0-0.276-0.224-0.5-0.5-0.5H16v-1h2.5
			c0.276,0,0.5-0.224,0.5-0.5V7h1v2.5c0,0.276,0.224,0.5,0.5,0.5H23V11z"/>
	</g>
</g>
<g id="Frames-24px">
	<rect fill="none" width="24" height="24"/>
</g>
</svg>
