<?xml version="1.0" encoding="utf-8"?>
<!-- Generator: Adobe Illustrator 16.0.3, SVG Export Plug-In . SVG Version: 6.00 Build 0)  -->
<!DOCTYPE svg PUBLIC "-//W3C//DTD SVG 1.1//EN" "http://www.w3.org/Graphics/SVG/1.1/DTD/svg11.dtd">
<svg version="1.1" xmlns="http://www.w3.org/2000/svg" xmlns:xlink="http://www.w3.org/1999/xlink" x="0px" y="0px" width="24px"
	 height="24px" viewBox="0 0 24 24" enable-background="new 0 0 24 24" xml:space="preserve">
<g id="Outline_Icons">
	<g>
		<path d="M12,0C5.383,0,0,5.383,0,12s5.383,12,12,12s12-5.383,12-12S18.617,0,12,0z M12,23C5.935,23,1,18.066,1,12
			C1,5.935,5.935,1,12,1s11,4.935,11,11C23,18.066,18.065,23,12,23z"/>
		<path d="M13.098,12.759c-0.773-0.52-1.021-0.73-0.832-1.322c0.178-0.118,0.346-0.255,0.499-0.41
			c0.645-0.644,0.983-1.514,0.954-2.45c-0.029-0.925-0.415-1.803-1.086-2.475C12.594,6.064,12.548,6.037,12.508,6h1.533V5H9.849
			v0.067C9.05,5.11,8.277,5.399,7.707,5.969C7.062,6.614,6.724,7.484,6.754,8.42c0.028,0.925,0.414,1.803,1.086,2.473
			c0.701,0.703,1.619,1.089,2.584,1.089c0.27,0,0.529-0.041,0.783-0.101c0.054,0.834,0.73,1.3,1.312,1.692
			c-0.684-0.216-1.45-0.349-2.282-0.349c-2.791,0-4.977,1.358-4.977,3.093c0,1.734,2.186,3.092,4.977,3.092
			c2.79,0,4.976-1.358,4.976-3.092C15.212,14.182,13.989,13.359,13.098,12.759z M8.547,10.187c-0.491-0.49-0.773-1.128-0.794-1.797
			C7.732,7.732,7.967,7.124,8.414,6.677c0.427-0.427,1.007-0.662,1.634-0.662c0.698,0,1.365,0.282,1.878,0.795
			c0.49,0.491,0.772,1.129,0.793,1.798c0.021,0.657-0.214,1.265-0.661,1.712C11.163,11.217,9.513,11.155,8.547,10.187z
			 M10.236,18.411c-2.155,0-3.977-0.958-3.977-2.092c0-1.134,1.821-2.093,3.977-2.093s3.976,0.958,3.976,2.093
			C14.212,17.453,12.392,18.411,10.236,18.411z"/>
		<polygon points="18,9 18,7 17,7 17,9 15,9 15,10 17,10 17,12 18,12 18,10 20,10 20,9 		"/>
	</g>
</g>
<g id="Frames-24px">
	<rect fill="none" width="24" height="24"/>
</g>
</svg>
