<?xml version="1.0" encoding="utf-8"?>
<!-- Generator: Adobe Illustrator 16.0.3, SVG Export Plug-In . SVG Version: 6.00 Build 0)  -->
<!DOCTYPE svg PUBLIC "-//W3C//DTD SVG 1.1//EN" "http://www.w3.org/Graphics/SVG/1.1/DTD/svg11.dtd">
<svg version="1.1" xmlns="http://www.w3.org/2000/svg" xmlns:xlink="http://www.w3.org/1999/xlink" x="0px" y="0px" width="24px"
	 height="24px" viewBox="0 0 24 24" enable-background="new 0 0 24 24" xml:space="preserve">
<g id="Outline_Icons">
	<g>
		<path d="M18.446,6.856c-0.049,0.005-1.066,0.117-1.732,0.225c-0.57-0.508-1.315-0.794-2.085-0.794
			c-1.728,0-3.133,1.405-3.133,3.132c0,0.015,0,0.03,0,0.045C9.755,9.227,8.15,8.332,7.027,6.953
			C6.923,6.827,6.762,6.758,6.601,6.77C6.437,6.783,6.289,6.876,6.207,7.018C5.93,7.496,5.783,8.041,5.783,8.593
			c0,0.494,0.115,0.971,0.329,1.399c-0.036,0.013-0.071,0.029-0.104,0.049c-0.152,0.09-0.246,0.271-0.246,0.448
			c0,0.906,0.393,1.739,1.028,2.318c-0.102,0.13-0.132,0.301-0.082,0.459c0.271,0.846,0.879,1.515,1.648,1.878
			c-0.783,0.356-1.664,0.494-2.553,0.391c-0.243-0.032-0.451,0.109-0.528,0.328c-0.078,0.219,0.005,0.464,0.201,0.589
			c1.288,0.826,2.776,1.263,4.305,1.263c5,0,7.988-4.062,7.988-7.989c0-0.041,0-0.082-0.001-0.123
			c0.324-0.336,0.565-0.833,0.801-1.316c0.121-0.25,0.234-0.486,0.347-0.656c0.107-0.162,0.112-0.37,0.012-0.536
			S18.64,6.836,18.446,6.856z M16.969,8.979c-0.138,0.1-0.215,0.262-0.206,0.431c0.005,0.104,0.007,0.209,0.007,0.314
			c0,3.436-2.614,6.989-6.988,6.989c-0.697,0-1.385-0.104-2.043-0.306c0.8-0.191,1.55-0.553,2.213-1.073
			c0.166-0.13,0.232-0.351,0.166-0.552c-0.067-0.201-0.254-0.336-0.465-0.341c-0.647-0.013-1.238-0.315-1.627-0.801
			c0.163-0.018,0.323-0.048,0.48-0.092c0.224-0.061,0.375-0.269,0.367-0.5c-0.009-0.231-0.175-0.427-0.402-0.472
			c-0.736-0.146-1.322-0.67-1.575-1.36c0.179,0.037,0.359,0.06,0.542,0.065c0.195,0.024,0.424-0.133,0.492-0.346
			c0.068-0.212-0.012-0.445-0.197-0.569C7.138,9.97,6.783,9.307,6.783,8.593c0-0.128,0.012-0.258,0.035-0.384
			c1.391,1.381,3.253,2.212,5.222,2.309c0.16,0.007,0.309-0.059,0.408-0.179c0.101-0.12,0.139-0.282,0.103-0.435
			c-0.036-0.156-0.055-0.318-0.055-0.485c0-1.176,0.957-2.132,2.133-2.132c0.596,0,1.148,0.239,1.556,0.674
			c0.118,0.126,0.293,0.183,0.463,0.149c0.24-0.048,0.614-0.101,0.967-0.147C17.417,8.368,17.182,8.825,16.969,8.979z"/>
		<path d="M12,0C5.383,0,0,5.383,0,12s5.383,12,12,12s12-5.383,12-12S18.617,0,12,0z M12,23C5.935,23,1,18.066,1,12
			C1,5.935,5.935,1,12,1s11,4.935,11,11C23,18.066,18.065,23,12,23z"/>
	</g>
</g>
<g id="Frames-24px">
	<rect fill="none" width="24" height="24"/>
</g>
</svg>
