<?xml version="1.0" encoding="utf-8"?>
<!-- Generator: Adobe Illustrator 16.0.3, SVG Export Plug-In . SVG Version: 6.00 Build 0)  -->
<!DOCTYPE svg PUBLIC "-//W3C//DTD SVG 1.1//EN" "http://www.w3.org/Graphics/SVG/1.1/DTD/svg11.dtd">
<svg version="1.1" xmlns="http://www.w3.org/2000/svg" xmlns:xlink="http://www.w3.org/1999/xlink" x="0px" y="0px" width="24px"
	 height="24px" viewBox="0 0 24 24" enable-background="new 0 0 24 24" xml:space="preserve">
<g id="Outline_Icons">
	<g>
		<path style="fill:#F22613" d="M11.207,18.238L8,20.528V5.757l6-4.286V10.5c0,0.276,0.224,0.5,0.5,0.5s0.5-0.224,0.5-0.5V1.472l6,4.286V12.5
			c0,0.276,0.224,0.5,0.5,0.5s0.5-0.224,0.5-0.5v-7c0-0.162-0.078-0.313-0.209-0.407l-7-5c-0.009-0.006-0.021-0.003-0.03-0.01
			C14.684,0.035,14.598,0,14.5,0s-0.184,0.035-0.261,0.083c-0.009,0.006-0.021,0.003-0.03,0.01L7.5,4.886L0.791,0.093
			c-0.152-0.11-0.353-0.124-0.52-0.038C0.104,0.141,0,0.312,0,0.5v16c0,0.162,0.078,0.313,0.209,0.407l7,5
			c0.009,0.007,0.021,0.004,0.03,0.01C7.316,21.965,7.402,22,7.5,22s0.184-0.035,0.261-0.083c0.009-0.006,0.021-0.003,0.03-0.01
			l3.997-2.855c0.225-0.161,0.277-0.473,0.116-0.698C11.743,18.129,11.432,18.077,11.207,18.238z M1,1.472l6,4.286v14.771l-6-4.285
			V1.472z"/>
		<path style="fill:#F22613" d="M23.854,23.146l-3.186-3.186c0.581-0.733,0.942-1.648,0.942-2.654c0-2.375-1.931-4.307-4.305-4.307
			C14.932,13,13,14.932,13,17.307c0,2.374,1.932,4.305,4.306,4.305c1.007,0,1.922-0.362,2.656-0.943l3.185,3.185
			C23.244,23.951,23.372,24,23.5,24s0.256-0.049,0.354-0.146C24.049,23.659,24.049,23.342,23.854,23.146z M14,17.307
			C14,15.483,15.483,14,17.306,14c1.822,0,3.305,1.483,3.305,3.307c0,1.822-1.482,3.305-3.305,3.305
			C15.483,20.611,14,19.129,14,17.307z"/>
	</g>
</g>
<g id="invisible_shape">
	<rect fill="none" width="24" height="24"/>
</g>
</svg>
