<?xml version="1.0" encoding="utf-8"?>
<!-- Generator: Adobe Illustrator 19.2.1, SVG Export Plug-In . SVG Version: 6.00 Build 0)  -->
<svg version="1.1" xmlns="http://www.w3.org/2000/svg" xmlns:xlink="http://www.w3.org/1999/xlink" x="0px" y="0px" width="24px"
	 height="24px" viewBox="0 0 24 24" enable-background="new 0 0 24 24" xml:space="preserve">
<g id="Filled_Icons">
	<path fill="#432E41" d="M12,0.004c-6.617,0-12,5.383-12,12s5.383,12,12,12s12-5.383,12-12S18.616,0.004,12,0.004z M18.82,12.388l-8.999,7.5
		c-0.092,0.077-0.206,0.116-0.32,0.116c-0.072,0-0.144-0.016-0.212-0.047C9.112,19.874,9,19.698,9,19.504v-4
		c0-0.154,0.071-0.3,0.193-0.394l3.992-3.106L9.193,8.898C9.071,8.804,9,8.658,9,8.504v-4c0-0.194,0.112-0.37,0.288-0.453
		C9.462,3.97,9.671,3.994,9.82,4.12l8.999,7.5c0.114,0.095,0.18,0.235,0.18,0.384C19,12.152,18.934,12.293,18.82,12.388z"/>
</g>
<g id="Frames-24px">
	<rect fill="none" width="24" height="24"/>
</g>
</svg>
