<?xml version="1.0" encoding="utf-8"?>
<!-- Generator: Adobe Illustrator 19.2.1, SVG Export Plug-In . SVG Version: 6.00 Build 0)  -->
<svg version="1.1" xmlns="http://www.w3.org/2000/svg" xmlns:xlink="http://www.w3.org/1999/xlink" x="0px" y="0px" width="24px"
	 height="24px" viewBox="0 0 24 24" enable-background="new 0 0 24 24" xml:space="preserve">
<g id="Filled_Icons_1_">
	<g id="Filled_Icons">
	</g>
	<g id="New_icons">
		<path fill="#432E41" d="M20.563,8.406C20.563,3.145,15.701,0,11,0C5.393,0,1,4.42,1,10.062c0,3.6,1.345,6.275,4,7.957v5.48
			C5,23.776,5.224,24,5.5,24h10c0.276,0,0.5-0.224,0.5-0.5v-2.978c1.737-0.017,2.788-0.195,3.572-0.981
			c0.835-0.836,0.955-3.34,0.962-4.528c0.303,0.005,0.684,0.006,1.017-0.007c0.558,0,1.156-0.381,1.156-1.401
			C22.708,11.672,21.25,10.266,20.563,8.406z M15.019,12.193c0,1.269-1.427,1.269-2.193,1.269c-1.026,0-2.116-0.782-2.116-2.232
			c0-1.533,1.016-2.231,1.96-2.231h1.35V5.4l-4,2.46v5.871c0,1.269-1.252,1.269-2,1.269C6.773,15,6,14.233,6,13s0.788-2,2.056-2
			h0.963V7.581c0-0.174,0.09-0.335,0.238-0.426l5-3.075c0.154-0.097,0.347-0.098,0.506-0.011c0.158,0.089,0.256,0.256,0.256,0.437
			V12.193z"/>
	</g>
</g>
<g id="Invisible_Shape">
	<rect fill="none" width="24" height="24"/>
</g>
</svg>
