<?xml version="1.0" encoding="UTF-8" standalone="no"?>
<!DOCTYPE svg PUBLIC "-//W3C//DTD SVG 1.1//EN" "http://www.w3.org/Graphics/SVG/1.1/DTD/svg11.dtd">
<svg width="100%" height="100%" viewBox="0 0 56 40" version="1.1" xmlns="http://www.w3.org/2000/svg" xmlns:xlink="http://www.w3.org/1999/xlink" xml:space="preserve" style="fill-rule:evenodd;clip-rule:evenodd;stroke-linecap:round;stroke-linejoin:round;stroke-miterlimit:1.5;">
    <g transform="matrix(1.07684,-0.00128931,0.00128931,1.07684,-206.905,-216.24)">
        <g id="__.2e.28.2e.Curve.2e.29.2e." transform="matrix(0.592203,0,0,0.592203,101.134,89.7368)">
            <path d="M204.983,233.875C204.514,233.876 204.068,233.669 203.767,233.309C203.466,232.949 203.34,232.473 203.425,232.012C203.561,231.268 203.724,230.375 203.89,229.469C204.411,226.62 206.85,224.521 209.746,224.431C209.747,224.431 209.749,224.431 209.751,224.431C210.519,224.407 211.224,224.002 211.631,223.35C212.038,222.699 212.094,221.887 211.778,221.186C211.408,220.362 211.018,219.495 210.682,218.747C210.084,217.418 209.777,215.975 209.783,214.517C209.783,214.307 209.784,214.092 209.785,213.877C209.792,211.974 210.391,210.119 211.499,208.57C212.699,206.892 214.487,205.728 216.506,205.308C216.507,205.308 216.508,205.307 216.509,205.307C217.164,205.171 217.841,205.171 218.496,205.308C218.755,205.363 219.045,205.423 219.34,205.485C220.738,205.777 221.952,206.638 222.69,207.861C222.813,208.065 222.939,208.274 223.065,208.482C224.014,210.055 224.519,211.856 224.525,213.693C224.526,213.903 224.526,214.115 224.527,214.323C224.533,215.958 224.175,217.573 223.481,219.054C223.16,219.738 222.802,220.502 222.46,221.231C222.14,221.912 222.184,222.708 222.577,223.35C222.97,223.992 223.658,224.394 224.41,224.419C224.411,224.419 224.411,224.419 224.412,224.419C227.24,224.517 229.632,226.543 230.193,229.317C230.358,230.134 230.522,230.946 230.665,231.65C230.772,232.178 230.636,232.726 230.296,233.143C229.955,233.56 229.446,233.803 228.907,233.805C223.576,233.82 209.999,233.86 204.983,233.875Z" style="fill:rgb(38,38,38);stroke:rgb(38,38,38);stroke-width:1.57px;"/>
        </g>
        <g transform="matrix(0.592203,0,0,0.592203,76.1344,89.7368)">
            <path d="M204.983,233.875C204.514,233.876 204.068,233.669 203.767,233.309C203.466,232.949 203.34,232.473 203.425,232.012C203.561,231.268 203.724,230.375 203.89,229.469C204.411,226.62 206.85,224.521 209.746,224.431C209.747,224.431 209.749,224.431 209.751,224.431C210.519,224.407 211.224,224.002 211.631,223.35C212.038,222.699 212.094,221.887 211.778,221.186C211.408,220.362 211.018,219.495 210.682,218.747C210.084,217.418 209.777,215.975 209.783,214.517C209.783,214.307 209.784,214.092 209.785,213.877C209.792,211.974 210.391,210.119 211.499,208.57C212.699,206.892 214.487,205.728 216.506,205.308C216.507,205.308 216.508,205.307 216.509,205.307C217.164,205.171 217.841,205.171 218.496,205.308C218.755,205.363 219.045,205.423 219.34,205.485C220.738,205.777 221.952,206.638 222.69,207.861C222.813,208.065 222.939,208.274 223.065,208.482C224.014,210.055 224.519,211.856 224.525,213.693C224.526,213.903 224.526,214.115 224.527,214.323C224.533,215.958 224.175,217.573 223.481,219.054C223.16,219.738 222.802,220.502 222.46,221.231C222.14,221.912 222.184,222.708 222.577,223.35C222.97,223.992 223.658,224.394 224.41,224.419C224.411,224.419 224.411,224.419 224.412,224.419C227.24,224.517 229.632,226.543 230.193,229.317C230.358,230.134 230.522,230.946 230.665,231.65C230.772,232.178 230.636,232.726 230.296,233.143C229.955,233.56 229.446,233.803 228.907,233.805C223.576,233.82 209.999,233.86 204.983,233.875Z" style="fill:rgb(38,38,38);stroke:rgb(38,38,38);stroke-width:1.57px;"/>
        </g>
        <path d="M204.208,233.877C203.93,233.878 203.666,233.755 203.488,233.542C203.31,233.329 203.235,233.047 203.285,232.774C203.52,231.491 203.916,229.325 204.242,227.542C204.558,225.817 206.035,224.547 207.788,224.492C208.879,224.458 210.088,224.421 211.086,224.39C211.555,224.375 211.987,224.127 212.236,223.728C212.485,223.33 212.519,222.833 212.326,222.404C211.73,221.078 210.95,219.344 210.41,218.143C209.991,217.212 209.776,216.201 209.78,215.179C209.782,214.6 209.785,213.929 209.787,213.295C209.793,211.77 210.273,210.285 211.16,209.044C211.382,208.734 211.613,208.411 211.839,208.095C212.82,206.723 214.283,205.77 215.935,205.426L215.936,205.426C216.969,205.212 218.036,205.212 219.069,205.428C219.26,205.468 219.456,205.509 219.65,205.55C220.851,205.801 221.893,206.54 222.526,207.59C222.863,208.147 223.237,208.768 223.57,209.319C224.189,210.344 224.518,211.518 224.522,212.715C224.525,213.557 224.528,214.543 224.53,215.335C224.534,216.304 224.322,217.26 223.911,218.137C223.384,219.261 222.619,220.891 222.009,222.193C221.789,222.661 221.819,223.207 222.089,223.648C222.359,224.089 222.832,224.365 223.348,224.383C224.192,224.412 225.16,224.445 226.064,224.476C227.924,224.54 229.496,225.872 229.865,227.696C230.199,229.347 230.591,231.284 230.842,232.526C230.905,232.839 230.825,233.163 230.623,233.41C230.422,233.657 230.12,233.801 229.801,233.802C225.052,233.816 208.663,233.864 204.208,233.877Z" style="stroke:black;stroke-width:0.93px;"/>
    </g>
</svg>
