<?xml version="1.0" encoding="UTF-8" standalone="no"?>
<!DOCTYPE svg PUBLIC "-//W3C//DTD SVG 1.1//EN" "http://www.w3.org/Graphics/SVG/1.1/DTD/svg11.dtd">
<svg width="100%" height="100%" viewBox="0 0 143 151" version="1.1" xmlns="http://www.w3.org/2000/svg" xmlns:xlink="http://www.w3.org/1999/xlink" xml:space="preserve" style="fill-rule:evenodd;clip-rule:evenodd;stroke-linecap:round;stroke-linejoin:round;stroke-miterlimit:1.5;">
    <g transform="matrix(4.88233,0,0,4.88233,-989.589,-997.658)">
        <path d="M208.851,233.864C207.426,233.868 206.073,233.238 205.159,232.145C204.245,231.052 203.864,229.608 204.121,228.207L204.121,228.206C204.507,226.094 206.316,224.538 208.462,224.471C208.641,224.466 208.821,224.46 209.001,224.455C209.936,224.425 210.795,223.932 211.291,223.138C211.787,222.344 211.855,221.355 211.471,220.502C211.167,219.828 210.865,219.155 210.601,218.568C210.056,217.356 209.777,216.042 209.782,214.714C209.791,212.266 210.561,209.881 211.986,207.89C212.049,207.801 212.111,207.714 212.173,207.628C212.94,206.556 214.082,205.812 215.373,205.543C215.49,205.519 215.607,205.495 215.723,205.471C216.897,205.227 218.109,205.227 219.282,205.473C219.562,205.531 219.849,205.591 220.119,205.648C221.021,205.836 221.803,206.391 222.279,207.18C222.38,207.347 222.486,207.524 222.596,207.706C223.852,209.787 224.52,212.169 224.528,214.599C224.533,216.052 224.215,217.488 223.598,218.803C223.403,219.219 223.191,219.672 222.975,220.133C222.541,221.058 222.601,222.138 223.133,223.009C223.666,223.881 224.601,224.426 225.622,224.461C225.728,224.465 225.833,224.468 225.938,224.472C227.871,224.539 229.507,225.924 229.89,227.82L229.89,227.821C230.187,229.289 229.811,230.814 228.863,231.975C227.916,233.136 226.499,233.812 225.001,233.816C220.202,233.83 213.562,233.85 208.851,233.864Z" style="fill:white;stroke:black;stroke-width:0.2px;"/>
    </g>
</svg>
