<?xml version="1.0" encoding="utf-8"?>
<!-- Generator: Adobe Illustrator 16.0.3, SVG Export Plug-In . SVG Version: 6.00 Build 0)  -->
<!DOCTYPE svg PUBLIC "-//W3C//DTD SVG 1.1//EN" "http://www.w3.org/Graphics/SVG/1.1/DTD/svg11.dtd">
<svg version="1.1" xmlns="http://www.w3.org/2000/svg" xmlns:xlink="http://www.w3.org/1999/xlink" x="0px" y="0px" width="24px"
	 height="24px" viewBox="0 0 24 24" enable-background="new 0 0 24 24" xml:space="preserve">
<g id="Outline_Icons_1_">
	<g id="Outline_Icons">
		<path d="M23.854,5.396l-3.5-3.5c-0.195-0.195-0.512-0.195-0.707,0L7.5,14.043l-3.146-3.146c-0.195-0.195-0.512-0.195-0.707,0
			l-3.5,3.5c-0.195,0.196-0.195,0.512,0,0.707l7,7c0.195,0.195,0.512,0.195,0.707,0l16-16C24.049,5.908,24.049,5.592,23.854,5.396z
			 M7.5,21.043L1.207,14.75L4,11.957l3.146,3.147c0.195,0.195,0.512,0.195,0.707,0L20,2.957l2.793,2.793L7.5,21.043z"/>
	</g>
</g>
<g id="Invisible_Shape">
	<rect fill="none" width="24" height="24"/>
</g>
</svg>
