<?xml version="1.0" encoding="utf-8"?>
<!-- Generator: Adobe Illustrator 16.0.3, SVG Export Plug-In . SVG Version: 6.00 Build 0)  -->
<!DOCTYPE svg PUBLIC "-//W3C//DTD SVG 1.1//EN" "http://www.w3.org/Graphics/SVG/1.1/DTD/svg11.dtd">
<svg version="1.1" xmlns="http://www.w3.org/2000/svg" xmlns:xlink="http://www.w3.org/1999/xlink" x="0px" y="0px" width="24px"
	 height="24px" viewBox="0 0 24 24" enable-background="new 0 0 24 24" xml:space="preserve">
<g id="Outline_Icons_1_">
	<g id="Outline_Icons">
		<g>
			<path d="M20,10.5c1.93,0,3.5-1.57,3.5-3.5S21.93,3.5,20,3.5S16.5,5.07,16.5,7S18.07,10.5,20,10.5z M20,4.5
				c1.379,0,2.5,1.122,2.5,2.5S21.379,9.5,20,9.5S17.5,8.378,17.5,7S18.621,4.5,20,4.5z"/>
			<path d="M13,6c1.654,0,3-1.346,3-3s-1.346-3-3-3s-3,1.346-3,3S11.346,6,13,6z M13,1c1.103,0,2,0.896,2,2c0,1.103-0.897,2-2,2
				s-2-0.897-2-2C11,1.896,11.897,1,13,1z"/>
			<path d="M6,8c1.654,0,3-1.346,3-3S7.654,2,6,2S3,3.346,3,5S4.346,8,6,8z M6,3c1.103,0,2,0.896,2,2c0,1.103-0.897,2-2,2
				S4,6.103,4,5C4,3.896,4.897,3,6,3z"/>
			<path d="M2.5,13.5C3.879,13.5,5,12.378,5,11S3.879,8.5,2.5,8.5S0,9.622,0,11S1.121,13.5,2.5,13.5z M2.5,9.5
				C3.327,9.5,4,10.173,4,11s-0.673,1.5-1.5,1.5S1,11.827,1,11S1.673,9.5,2.5,9.5z"/>
			<path d="M4,14.5c-1.379,0-2.5,1.122-2.5,2.5s1.121,2.5,2.5,2.5s2.5-1.122,2.5-2.5S5.379,14.5,4,14.5z M4,18.5
				c-0.827,0-1.5-0.673-1.5-1.5s0.673-1.5,1.5-1.5s1.5,0.673,1.5,1.5S4.827,18.5,4,18.5z"/>
			<path d="M9,19c-1.103,0-2,0.896-2,2c0,1.103,0.897,2,2,2s2-0.897,2-2C11,19.896,10.103,19,9,19z M9,22c-0.552,0-1-0.449-1-1
				c0-0.551,0.448-1,1-1s1,0.449,1,1C10,21.551,9.552,22,9,22z"/>
			<path d="M15.875,21.146c0-0.827-0.673-1.5-1.5-1.5s-1.5,0.673-1.5,1.5s0.673,1.5,1.5,1.5S15.875,21.973,15.875,21.146z
				 M13.875,21.146c0-0.276,0.225-0.5,0.5-0.5s0.5,0.224,0.5,0.5s-0.225,0.5-0.5,0.5S13.875,21.421,13.875,21.146z"/>
			<circle cx="18" cy="19.375" r="1"/>
			<circle cx="20.281" cy="17" r="1"/>
			<circle cx="21.5" cy="14.5" r="0.5"/>
		</g>
	</g>
	<g id="New_icons_1_">
	</g>
</g>
<g id="Invisible_Shape">
	<rect fill="none" width="24" height="24"/>
</g>
</svg>
