<?xml version="1.0" encoding="utf-8"?>
<!-- Generator: Adobe Illustrator 16.0.3, SVG Export Plug-In . SVG Version: 6.00 Build 0)  -->
<!DOCTYPE svg PUBLIC "-//W3C//DTD SVG 1.1//EN" "http://www.w3.org/Graphics/SVG/1.1/DTD/svg11.dtd">
<svg version="1.1" xmlns="http://www.w3.org/2000/svg" xmlns:xlink="http://www.w3.org/1999/xlink" x="0px" y="0px" width="24px"
	 height="24px" viewBox="0 0 24 24" enable-background="new 0 0 24 24" xml:space="preserve">
<g id="Outline_Icons">
	<g>
		<path d="M12.5,15.011c1.378,0,2.5-1.122,2.5-2.5s-1.122-2.5-2.5-2.5s-2.5,1.122-2.5,2.5S11.122,15.011,12.5,15.011z M12.5,11.011
			c0.827,0,1.5,0.673,1.5,1.5s-0.673,1.5-1.5,1.5s-1.5-0.673-1.5-1.5S11.673,11.011,12.5,11.011z"/>
		<path d="M7.5,7.011H7c-0.276,0-0.5,0.224-0.5,0.5v0.5c-0.827,0-1.5,0.673-1.5,1.5v6c0,0.827,0.673,1.5,1.5,1.5h10
			c0.827,0,1.5-0.673,1.5-1.5v-6c0-0.827-0.673-1.5-1.5-1.5h-1.191l-0.085-0.17c-0.255-0.511-0.769-0.83-1.342-0.83h-2.264
			c-0.573,0-1.087,0.318-1.342,0.829l-0.085,0.171H8v-0.5C8,7.234,7.776,7.011,7.5,7.011z M10.5,9.011
			c0.189,0,0.363-0.106,0.447-0.276l0.224-0.448c0.085-0.17,0.256-0.275,0.447-0.275h2.264c0.191,0,0.362,0.105,0.447,0.276
			l0.224,0.448c0.084,0.17,0.258,0.276,0.447,0.276h1.5c0.276,0,0.5,0.224,0.5,0.5v6c0,0.276-0.224,0.5-0.5,0.5h-10
			c-0.276,0-0.5-0.224-0.5-0.5v-6c0-0.276,0.224-0.5,0.5-0.5H10.5z"/>
		<path d="M11.5,2.511c2.385,0,4.669,0.897,6.412,2.491l-2.778,0.243c-0.275,0.023-0.479,0.267-0.455,0.542
			c0.023,0.26,0.241,0.457,0.498,0.457c0.015,0,0.029,0,0.044-0.002l3.833-0.336c0.019-0.001,0.035-0.012,0.053-0.016
			c0.034-0.007,0.066-0.015,0.099-0.029c0.031-0.013,0.057-0.029,0.084-0.049c0.017-0.011,0.036-0.016,0.051-0.029
			c0.01-0.009,0.015-0.022,0.024-0.032c0.01-0.01,0.024-0.015,0.033-0.026c0.013-0.017,0.018-0.037,0.028-0.055
			c0.018-0.028,0.034-0.055,0.046-0.085c0.011-0.03,0.018-0.059,0.023-0.09c0.006-0.033,0.01-0.066,0.009-0.1
			c0-0.014,0.005-0.028,0.004-0.042l-0.431-3.931c-0.031-0.275-0.274-0.474-0.552-0.443c-0.274,0.03-0.473,0.277-0.442,0.552
			l0.279,2.547c-1.896-1.639-4.324-2.567-6.861-2.567c-5.79,0-10.5,4.71-10.5,10.5c0,0.276,0.224,0.5,0.5,0.5s0.5-0.224,0.5-0.5
			C2,6.772,6.262,2.511,11.5,2.511z"/>
		<path d="M21.5,11.511c-0.276,0-0.5,0.224-0.5,0.5c0,5.238-4.262,9.5-9.5,9.5c-2.249,0-4.369-0.774-6.07-2.194l2.768-0.393
			c0.273-0.04,0.463-0.292,0.425-0.566c-0.039-0.274-0.292-0.468-0.565-0.425l-3.809,0.541c-0.019,0.003-0.034,0.014-0.052,0.019
			c-0.033,0.008-0.064,0.019-0.095,0.033c-0.03,0.015-0.056,0.033-0.083,0.053c-0.016,0.012-0.034,0.017-0.049,0.031
			c-0.011,0.01-0.015,0.024-0.024,0.035s-0.022,0.017-0.031,0.028c-0.011,0.016-0.015,0.035-0.024,0.052
			c-0.018,0.03-0.032,0.059-0.043,0.091c-0.009,0.03-0.015,0.058-0.019,0.089c-0.004,0.034-0.006,0.067-0.004,0.101
			c0.001,0.015-0.004,0.029-0.001,0.043l0.638,3.902c0.04,0.245,0.252,0.419,0.493,0.419c0.027,0,0.054-0.002,0.081-0.006
			c0.272-0.045,0.458-0.302,0.413-0.574l-0.412-2.516c1.838,1.444,4.082,2.236,6.462,2.236c5.79,0,10.5-4.71,10.5-10.5
			C22,11.734,21.776,11.511,21.5,11.511z"/>
	</g>
</g>
<g id="Invisible_Shape">
	<rect fill="none" width="24" height="24"/>
</g>
</svg>
